<?xml version="1.0" standalone="no"?>
<!DOCTYPE svg PUBLIC "-//W3C//DTD SVG 20010904//EN"
 "http://www.w3.org/TR/2001/REC-SVG-20010904/DTD/svg10.dtd">
<svg version="1.0" xmlns="http://www.w3.org/2000/svg"
 width="512.000000pt" height="512.000000pt" viewBox="0 0 512.000000 512.000000"
 preserveAspectRatio="xMidYMid meet">
<metadata>
Created by potrace 1.14, written by Peter Selinger 2001-2017
</metadata>
<g transform="translate(0.000000,512.000000) scale(0.100000,-0.100000)"
fill="#000000" stroke="none">
<path d="M2511 4948 c-52 -28 -66 -62 -66 -161 -1 -90 -1 -92 -25 -95 -47 -6
-170 -42 -218 -64 -103 -47 -186 -129 -236 -233 -41 -85 -56 -152 -56 -253 1
-269 145 -441 450 -536 l85 -27 0 -152 -1 -152 95 -105 c145 -160 180 -197
257 -278 l70 -75 151 93 152 93 34 76 c44 98 61 189 53 294 -17 253 -165 418
-456 508 -58 18 -109 36 -115 41 -6 5 -10 96 -10 222 l0 214 26 -14 c35 -18
70 -60 90 -109 9 -22 25 -59 34 -82 35 -84 120 -132 209 -118 178 30 218 218
86 410 -43 62 -119 137 -171 167 -55 33 -158 68 -218 75 -26 3 -48 7 -51 10
-2 2 -5 43 -5 91 -2 90 -9 114 -43 145 -26 24 -90 31 -121 15z m-67 -761 c-1
-94 -2 -177 -3 -184 -3 -27 -104 47 -130 94 -17 33 -14 133 7 171 16 30 95 92
117 92 6 0 10 -63 9 -173z m375 -760 c69 -63 68 -209 -2 -286 -29 -31 -106
-81 -127 -81 -13 0 -15 26 -14 218 1 119 2 221 3 225 1 10 109 -48 140 -76z"/>
<path d="M3591 3879 c-30 -33 -22 -61 54 -172 211 -310 264 -391 260 -398 -3
-4 -26 -19 -53 -35 -47 -27 -243 -145 -735 -444 -299 -181 -267 -172 -341 -91
-23 25 -57 61 -76 81 -60 63 -160 170 -285 304 -376 405 -358 388 -394 381
-22 -4 -161 -136 -556 -527 -289 -288 -704 -699 -921 -914 l-394 -391 11 -32
c15 -42 43 -61 78 -51 15 4 142 83 282 176 140 92 382 252 539 356 157 103
290 191 295 196 6 5 15 11 20 13 6 2 98 63 205 135 251 168 237 161 261 133
11 -13 48 -53 82 -89 79 -84 257 -277 279 -303 10 -10 64 -69 121 -131 57 -61
115 -123 128 -137 229 -250 266 -289 276 -290 4 0 16 -2 26 -4 15 -3 148 84
304 199 23 17 65 47 93 66 27 19 72 51 99 70 26 19 57 41 67 48 25 17 428 303
479 340 70 51 490 348 501 355 7 4 40 -35 84 -101 155 -227 204 -298 223 -319
43 -48 109 -17 122 55 6 36 50 272 60 322 3 14 8 39 10 55 3 17 12 62 20 100
8 39 16 81 19 95 3 14 7 36 11 50 3 14 7 39 9 55 2 17 14 75 25 130 11 55 29
150 41 210 11 61 22 121 25 135 25 112 9 144 -78 159 -34 6 -73 13 -87 16 -14
2 -36 7 -50 9 -256 50 -617 119 -655 126 -27 6 -61 12 -75 15 -14 3 -74 15
-135 26 -60 12 -119 23 -130 26 -11 2 -43 7 -71 10 -45 5 -54 3 -73 -18z"/>
<path d="M4303 2116 l-28 -24 -1 -934 c0 -513 1 -940 3 -949 3 -8 17 -23 33
-32 24 -15 62 -17 268 -17 239 0 241 0 269 24 l27 24 1 933 c0 923 0 934 -20
964 l-21 30 -251 3 -251 2 -29 -24z"/>
<path d="M1028 1868 c-14 -5 -30 -17 -34 -26 -11 -24 -14 -1590 -3 -1627 16
-53 28 -56 290 -55 145 0 248 4 259 10 43 23 43 19 43 841 0 432 -3 798 -7
812 -12 48 -33 51 -286 53 -130 0 -247 -3 -262 -8z"/>
<path d="M1833 1796 l-27 -24 -1 -520 c0 -286 -3 -524 -7 -528 -4 -4 -4 -12 0
-18 4 -6 7 -121 8 -255 l0 -244 28 -23 c27 -24 29 -24 271 -24 243 0 244 0
272 24 l28 24 0 781 0 780 -23 23 c-22 23 -27 23 -272 25 -249 3 -249 3 -277
-21z"/>
<path d="M3477 1794 l-27 -27 0 -766 c0 -421 3 -776 6 -788 14 -50 36 -54 295
-53 142 0 248 4 260 10 10 6 23 19 29 30 7 13 10 272 10 795 0 770 0 776 -20
798 -21 21 -28 22 -274 25 l-252 3 -27 -27z"/>
<path d="M2682 1479 c-9 -4 -25 -16 -35 -27 -17 -18 -18 -46 -18 -363 1 -189
1 -465 1 -612 l0 -268 25 -24 24 -25 249 0 c236 0 249 1 270 20 12 11 24 31
27 43 3 12 4 292 3 621 l-3 599 -28 21 c-27 20 -40 21 -263 21 -129 0 -243 -3
-252 -6z"/>
<path d="M185 1254 c-22 -24 -25 -36 -25 -103 -2 -490 2 -933 6 -946 16 -39
53 -45 304 -45 l241 0 24 26 25 27 0 507 0 507 -25 27 -24 26 -251 0 -251 0
-24 -26z"/>
</g>
</svg>
